# xmcd
#
# Track frame offsets:
#	150
#	20462
#	38927
#	51450
#	67732
#	85502
#	99110
#	109720
#	125810
#	138662
#	156632
#	172470
#
# Disc length: 2451 seconds
#
# Revision: 6
# Processed by: cddbd v1.5.2PL0 Copyright (c) Steve Scherf et al.
# Submitted via: audiograbber 1.83.01
#
DISCID=a809910c
DTITLE=Sampler - Tammy Wynette Remembered 
DYEAR=1998
DGENRE=Country
TTITLE0=Elton John - Stand By Your Man
TTITLE1=Trisha Yearwood - 'Til I Get It Right 
TTITLE2=Rosanne Cash  - D-I-V-O-R-C-E 
TTITLE3=Melissa Etheridge - Apartment #9
TTITLE4=Wynonna - Woman To Woman 
TTITLE5=George Jones - Take Me To Your World 
TTITLE6=K.T. Oslin - Your Good Girl's Gonna Go Bad
TTITLE7=Lorrie Morgan - You And Me 
TTITLE8=Sara Evans - I Don't Wanna Play House 
TTITLE9=E. Harris, Linda Ronstadt,Anna and Kate McGarrigle - Golden Ring
TTITLE10=Faith Hill - 'Til I Can Make It On My Own 
TTITLE11=Tammy Wynette and Brian Wilson - In My Room 
EXTD=Tribute album to Tammy Wynette
EXTT0=
EXTT1=
EXTT2=
EXTT3=
EXTT4=
EXTT5=
EXTT6=
EXTT7=
EXTT8=
EXTT9=
EXTT10=
EXTT11=
PLAYORDER=
